<svg width="54" height="52" viewBox="0 0 54 52" fill="none" xmlns="http://www.w3.org/2000/svg">
<g clip-path="url(#clip0)">
<path fill-rule="evenodd" clip-rule="evenodd" d="M23.1385 5.77162C21.7241 6.58975 20.1731 7.23504 18.5337 7.68738C16.6632 6.83067 15.0313 5.66175 13.7428 4.2557C16.504 4.92674 20.373 5.68469 23.1385 5.77162ZM14.4785 3.76198C16.4482 2.73256 18.583 1.93443 20.8213 1.39075C21.2131 2.56081 21.8529 3.66484 22.7114 4.65206C19.9341 4.61303 17.1716 4.31086 14.4785 3.75155V3.76198ZM12.6814 4.61382C13.3707 5.37178 14.1783 6.32792 15.4215 6.98505L12.821 7.13108C12.2924 6.91899 12.0176 6.59911 10.6095 6.39745C10.7884 5.99831 11.0644 5.63336 11.4207 5.3249C11.7769 5.01643 12.2059 4.77093 12.6814 4.60339V4.61382ZM8.2373 6.08801C11.8611 3.52555 16.5505 1.74539 21.2906 0C22.4466 3.23095 24.2193 6.29046 26.5424 9.06422C25.0878 8.85561 23.5571 8.66786 22.0052 8.4801C23.037 8.42795 24.4789 8.57398 25.5106 8.52183C24.8136 7.83154 24.1682 7.10701 23.5782 6.35226C22.7325 6.95028 21.0919 7.56221 19.7092 7.90642C19.9586 8.04897 20.8762 8.22977 21.1257 8.37232C16.5674 7.82297 11.878 7.23886 8.24153 6.08106L8.2373 6.08801Z" fill="white"/>
<path fill-rule="evenodd" clip-rule="evenodd" d="M11.9413 37.3726C13.8871 35.2326 15.5617 33.0591 16.6293 30.8076L10.8135 32.9142C10.0859 34.3929 10.6456 36.5107 11.9413 37.3726ZM4.8125 45.9179C7.49443 43.8299 9.47897 41.5784 10.5337 39.1114L1.42027 40.8948C1.46762 43.2578 2.44913 45.0263 4.8125 45.9254V45.9179ZM16.8661 43.4064C14.4769 42.0503 12.8497 40.8056 11.7003 39.4347C10.1831 41.9789 8.25698 44.3254 5.97911 46.4047C9.69692 45.6696 13.3371 44.6679 16.8618 43.4101L16.8661 43.4064ZM23.4913 35.0803C23.0866 37.3615 20.508 40.6979 18.2264 42.7599C16.018 41.7567 14.1067 40.5307 12.9272 38.7064C16.2591 38.1714 20.5898 36.1094 23.487 35.084L23.4913 35.0803ZM22.9575 34.5787C20.1034 35.9274 15.3852 37.6959 12.4063 37.9634C13.9087 35.6116 16.7671 32.7173 18.2695 30.3655C19.2836 32.1582 20.9231 33.6316 22.9575 34.5787ZM23.6592 33.8913C24.0337 32.0931 24.7397 29.771 24.4082 28.1771C22.7982 28.6787 20.6716 29.4589 19.0616 29.9605C20.7147 32.4015 22.8283 33.5384 23.6635 33.8876L23.6592 33.8913ZM24.3135 34.2146C26.7372 33.1483 29.6731 31.677 32.0967 30.607C30.9559 29.1877 28.782 28.218 26.1431 27.4452C25.7083 29.5667 24.7569 32.0931 24.3178 34.2146H24.3135ZM32.4928 29.5964C32.5539 28.4487 32.4278 27.2994 32.1182 26.182L27.8521 27.0848C29.8539 27.5641 31.4596 28.3369 32.4798 29.5927L32.4928 29.5964ZM31.9546 37.2129C32.2215 35.1583 32.553 33.4752 32.4454 31.3798C29.9443 32.4944 27.1031 33.609 24.6019 34.7422C26.7209 36.1594 29.2703 37.0163 31.9417 37.2092L31.9546 37.2129ZM19.0401 43.2132C22.4495 42.0651 28.1276 39.5387 31.5242 38.3832C29.6386 38.1417 26.6381 36.819 24.1241 35.2772C23.5343 37.7813 20.8524 41.5747 19.0185 43.1983L19.0401 43.2132ZM19.901 43.4547C22.217 45.0597 26.3583 45.3123 29.3244 45.7656C30.2155 43.6441 31.0463 41.6044 31.4768 39.2823C27.7574 40.6273 23.5516 42.0837 19.8666 43.4509L19.901 43.4547ZM14.4855 49.7336C19.1219 48.9905 23.6118 48.0468 27.6842 46.4529C24.7569 45.9662 21.6574 45.5798 18.997 44.2237C17.9079 46.2337 16.4356 47.8871 14.4468 49.7336H14.4855ZM16.5734 50.1386C20.6372 49.3083 24.6277 48.2307 28.5151 46.9137C27.9167 48.489 27.4475 49.964 26.4746 51.268C23.1272 51.1648 19.7989 50.7866 16.5346 50.1386H16.5734ZM13.4782 49.3955C15.5445 47.8388 17.4946 45.7396 17.9337 43.8039C14.4898 44.8776 10.3658 46.0926 6.5861 46.6796C8.63814 47.9722 10.9679 48.8993 13.4394 49.4067L13.4782 49.3955ZM27.215 51.9963C32.3335 42.21 34.3051 34.1328 33.0309 24.8073C24.6493 27.2743 16.6724 29.4404 9.35412 33.1223C9.0983 34.9191 9.57795 36.7366 10.7102 38.2606L1.51928 40.3263C1.82062 36.9454 5.17841 35.3292 9.34121 33.126C8.28221 33.6585 7.239 34.2208 6.21158 34.8128C-11.4125 44.9742 12.5828 51.5801 27.1806 52L27.215 51.9963Z" fill="white"/>
<path fill-rule="evenodd" clip-rule="evenodd" d="M16.3858 25.27L19.7937 23.2612C19.3088 22.6722 18.5854 22.2668 17.7707 22.1273C17.5011 23.2321 17.0338 24.2927 16.3858 25.27V25.27ZM12.398 29.7617L16.6361 27.2096L16.1147 25.7768C15.0646 27.2315 13.8166 28.5696 12.398 29.7617V29.7617ZM13.7954 30.3377C16.4786 29.0819 19.2845 28.0375 22.1797 27.2169C22.0129 25.9737 21.9837 24.508 21.091 23.6367C18.8635 25.6747 16.0229 28.307 13.7954 30.3414V30.3377ZM24.403 26.4403C26.5387 24.0961 28.8997 21.7008 31.0354 19.3419C33.0668 20.1513 34.7061 21.4018 36.3747 23.0607L24.403 26.4403ZM21.9003 23.2612L30.0802 18.7841C27.8402 21.4346 25.1872 24.3258 22.9472 26.9763C22.8804 25.6915 22.5261 24.4306 21.9044 23.2648L21.9003 23.2612ZM21.5832 22.7836L24.9703 16.5018C26.4539 16.7966 27.8478 17.366 29.0582 18.1716L21.5832 22.7836ZM18.4047 20.9133L24.0401 16.1445L21.1995 22.4482C20.5199 21.6518 19.5248 21.1058 18.4089 20.9169L18.4047 20.9133ZM18.4506 19.4039C18.5395 17.7932 18.4782 16.1788 18.2671 14.5768L23.0849 15.7654C21.5123 16.9794 20.0107 18.1935 18.4548 19.4039H18.4506ZM38.4228 22.6341C40.9171 20.2148 43.133 17.5869 45.0384 14.7883C47.9901 16.1027 50.5737 17.97 52.6052 20.257C47.8096 20.6995 43.0654 21.4947 38.4228 22.6341V22.6341ZM32.4244 18.2591C36.2203 16.6294 40.3082 15.4701 44.467 14.4237C42.3354 17.2711 39.7826 20.0456 37.2882 22.893C36.1223 21.0256 34.4528 19.435 32.4244 18.2591V18.2591ZM31.7904 17.8617C32.9542 16.13 34.0596 13.3336 34.1305 11.281C37.2734 11.8513 40.3465 12.6839 43.3073 13.7675C39.3122 14.7658 35.4511 16.136 31.7904 17.8544V17.8617ZM26.1091 15.3097C28.3392 13.5786 30.8602 12.1572 33.5841 11.0951C33.071 13.3263 32.3327 15.4919 30.8352 17.457C29.4537 16.4541 27.842 15.7218 26.1091 15.3097V15.3097ZM25.1539 14.8904L24.3196 9.68051C27.0715 9.73946 29.8042 10.0996 32.4536 10.7524C29.8244 11.8477 27.3704 13.2389 25.1539 14.8904V14.8904ZM18.7259 13.2206L24.111 14.73L23.6105 9.62583C21.7918 10.6357 19.9231 11.5763 18.7259 13.2206ZM16.148 8.35344C16.7534 9.77979 17.2427 11.2418 17.6122 12.7284C19.0996 11.3805 20.8109 10.2362 22.6886 9.33416C20.5863 8.71802 18.3129 8.50656 16.148 8.35344V8.35344ZM16.2565 11.4414C16.0058 10.1956 15.4923 9.0014 14.7423 7.91958C13.8129 7.59003 12.8247 7.40495 11.8224 7.37271C13.5254 8.527 15.0202 9.89858 16.2565 11.4414V11.4414ZM8.99844 33.1632L5.94922 34.8257C6.99621 33.8523 8.08075 32.8424 9.08186 31.9966C20.6739 22.2404 20.3777 13.4539 9.98703 6.84042C7.06713 4.97741 7.62191 5.87793 10.6419 6.47584C28.2073 10.0305 43.2531 8.78 53.477 19.8195C54.2111 20.6107 54.1485 20.7966 53.4394 20.8367C47.5162 21.1758 26.9726 24.9091 9.00678 33.1669L8.99844 33.1632Z" fill="white"/>
</g>
<defs>
<clipPath id="clip0">
<rect width="54" height="52" fill="white"/>
</clipPath>
</defs>
</svg>
