<svg width="100" height="100" viewBox="0 0 100 100" fill="none" xmlns="http://www.w3.org/2000/svg">
<path d="M90 38.3335H63.3333V28.3335L43.3333 5.00012H6.66667C2.99991 5.00012 0 8.00004 0 11.6668V88.3335C0 92 2.99991 95.0001 6.66667 95.0001H56.6667C60.3332 95.0001 63.3333 92 63.3333 88.3335V81.6668H90C95.6668 81.6668 100 77.3335 100 71.6668V48.3333C100 42.6667 95.6668 38.3335 90 38.3335ZM43.3333 10L59.0001 28.3335H46.6667C45.0001 28.3335 43.3333 26.6669 43.3333 25.0001V10ZM60 88.3333C60 89.9999 58.6667 91.6666 56.6667 91.6666H6.66667C5.00009 91.6666 3.33333 90.3333 3.33333 88.3333V11.6668C3.33333 10.0002 4.66667 8.33346 6.66667 8.33346H40V25.0001C40 28.6669 42.9999 31.6668 46.6667 31.6668H60V38.3335H33.3333C27.6666 38.3335 23.3333 42.6667 23.3333 48.3335V71.6668C23.3333 77.3335 27.6666 81.6668 33.3333 81.6668H60V88.3333ZM96.6667 71.6668C96.6667 75.3334 93.6666 78.3335 90 78.3335H33.3333C29.6666 78.3335 26.6667 75.3334 26.6667 71.6668V48.3333C26.6667 44.6665 29.6666 41.6666 33.3333 41.6666H90C93.6666 41.6666 96.6667 44.6665 96.6667 48.3333V71.6668Z" fill="black"/>
<path d="M53.8091 48.5391V64.8618C53.7876 65.5278 53.6694 66.1616 53.4546 66.7632C53.2505 67.354 52.9551 67.875 52.5684 68.3262C52.1709 68.7773 51.6929 69.1372 51.1343 69.4058C50.5757 69.6636 49.9419 69.7925 49.2329 69.7925C48.5454 69.7925 47.9224 69.6797 47.3638 69.4541C46.8159 69.2285 46.3433 68.9062 45.9458 68.4873C45.5483 68.0791 45.2314 67.5957 44.9951 67.0371C44.7695 66.4785 44.6406 65.8716 44.6084 65.2163H41.5791C41.6758 66.3013 41.9229 67.2842 42.3203 68.165C42.7178 69.0352 43.2495 69.7764 43.9155 70.3887C44.5708 71.0117 45.3442 71.4897 46.2358 71.8228C47.1382 72.1558 48.1372 72.3223 49.2329 72.3223C50.3179 72.3223 51.3169 72.1396 52.23 71.7744C53.1538 71.3984 53.9541 70.8774 54.6309 70.2114C55.3076 69.5562 55.8394 68.772 56.2261 67.8589C56.6235 66.9458 56.833 65.9468 56.8545 64.8618V48.5391H53.8091ZM74.9014 66.0703C74.9014 66.7148 74.7617 67.2734 74.4824 67.7461C74.2031 68.208 73.8433 68.5894 73.4028 68.8901C72.9624 69.2017 72.4575 69.4326 71.8882 69.583C71.3296 69.7227 70.7603 69.7925 70.1802 69.7925C69.4497 69.7925 68.7729 69.6958 68.1499 69.5024C67.5376 69.2983 66.9951 68.9976 66.5225 68.6001C66.0498 68.2134 65.6631 67.7407 65.3623 67.1821C65.0615 66.6128 64.8628 65.9629 64.7661 65.2324H61.7207C61.7529 66.2422 61.9731 67.1606 62.3813 67.9878C62.8003 68.8042 63.3643 69.5186 64.0732 70.1309C64.8682 70.8398 65.8027 71.3823 66.877 71.7583C67.9619 72.1343 69.063 72.3223 70.1802 72.3223C71.1147 72.3223 72.0493 72.1934 72.9839 71.9355C73.9185 71.667 74.7563 71.2695 75.4976 70.7432C76.2388 70.2275 76.8403 69.5776 77.3022 68.7935C77.7749 68.0093 78.0112 67.0908 78.0112 66.0381C78.0112 64.9961 77.791 64.0776 77.3506 63.2827C76.9209 62.4878 76.3516 61.8164 75.6426 61.2686C74.9229 60.6777 74.1279 60.1943 73.2578 59.8184C72.3877 59.4316 71.5176 59.104 70.6475 58.8354C70.1211 58.6743 69.5571 58.4863 68.9556 58.2715C68.3647 58.0566 67.8169 57.7881 67.312 57.4658C66.7964 57.1436 66.3721 56.7515 66.0391 56.2896C65.7061 55.8169 65.5342 55.2422 65.5234 54.5654C65.5234 53.9424 65.647 53.3945 65.894 52.9219C66.1519 52.4492 66.4956 52.0518 66.9253 51.7295C67.3442 51.4072 67.8223 51.1655 68.3594 51.0044C68.9072 50.8433 69.4658 50.7627 70.0352 50.7627C70.7441 50.7627 71.3779 50.8755 71.9365 51.1011C72.5059 51.3159 72.9946 51.6221 73.4028 52.0195C73.811 52.417 74.1387 52.895 74.3857 53.4536C74.6328 54.0015 74.7993 54.6138 74.8853 55.2905H77.9468C77.9253 54.2163 77.6943 53.2441 77.2539 52.374C76.8135 51.5039 76.228 50.7627 75.4976 50.1504C74.7671 49.5381 73.9292 49.0654 72.9839 48.7324C72.0386 48.3887 71.0557 48.2168 70.0352 48.2168C69.1113 48.2168 68.1929 48.3618 67.2798 48.6519C66.3667 48.9312 65.5503 49.3447 64.8306 49.8926C64.1108 50.4404 63.5254 51.1118 63.0742 51.9067C62.6338 52.7017 62.4136 53.604 62.4136 54.6138C62.4136 55.6235 62.6338 56.5044 63.0742 57.2563C63.5254 57.9976 64.1055 58.6421 64.8145 59.1899C65.5127 59.7271 66.2861 60.189 67.1348 60.5757C67.9941 60.9517 68.8374 61.2739 69.6646 61.5425C70.2339 61.7251 70.8247 61.9292 71.437 62.1548C72.0601 62.3804 72.6294 62.6597 73.145 62.9927C73.6606 63.3364 74.0796 63.7554 74.4019 64.2495C74.7349 64.7437 74.9014 65.3506 74.9014 66.0703Z" fill="black"/>
</svg>
