<svg width="100" height="52" viewBox="0 0 100 52" fill="none" xmlns="http://www.w3.org/2000/svg">
<g clip-path="url(#clip0)">
<path d="M24.6804 1.6405C25.0423 1.0253 25.5127 0.434225 26.1883 0.14472C26.4657 0.0964689 26.7431 0.120594 27.0206 0.120594H40.6756C40.2775 0.458351 39.8915 0.80817 39.6261 1.26655C38.9265 2.41251 38.4561 3.69116 38.0218 4.96981C36.7914 8.82988 35.9349 12.7985 35.1026 16.7672C34.7287 18.5645 34.3668 20.3739 34.029 22.1713C32.9916 28.0579 31.9181 33.9324 30.5791 39.7587C29.9398 42.4487 29.2884 45.1387 28.2992 47.7322C27.8409 48.8058 27.3945 49.9517 26.514 50.7479C26.3089 50.9288 26.1038 51.158 25.8143 51.1218H13.7516C12.9313 51.0977 12.1231 51.1701 11.3029 51.0856C11.8457 50.6634 12.3282 50.1568 12.6418 49.5536C13.5465 47.8287 14.1135 45.959 14.6563 44.1013C15.5007 41.1097 16.1762 38.082 16.8155 35.0542C17.2136 33.0639 17.684 31.0856 17.9735 29.0832C18.2992 26.8516 18.7938 24.6441 19.1919 22.4246C19.8191 19.1556 20.4826 15.8866 21.2184 12.6417C21.8095 10.1085 22.4126 7.58742 23.2208 5.11456C23.6189 3.92035 24.0532 2.73821 24.6804 1.6405Z" fill="black" stroke="#424242"/>
<path d="M40.6755 0.120596C41.0253 0.120596 41.3751 0.108533 41.725 0.120596C42.497 0.530728 43.1484 1.18212 43.5102 1.99032C43.9927 2.90709 44.3908 3.8721 44.7527 4.86125C45.959 8.58863 46.7792 12.4246 47.5995 16.2485C48.2991 19.6743 48.9626 23.1122 49.5898 26.5621C49.6381 26.743 49.5778 26.9964 49.819 27.0446C48.9505 31.5802 48.0941 36.1278 47.0084 40.6272C46.4173 43.0518 45.7901 45.4644 44.8974 47.8046C44.4149 48.9746 43.9204 50.2533 42.895 51.0856C42.2436 51.2304 41.7732 50.7358 41.3751 50.2895C40.6876 49.4089 40.2654 48.3715 39.8552 47.3341C38.4921 43.6188 37.6598 39.7467 36.8154 35.8866C36.1761 32.883 35.6091 29.8552 35.0181 26.8395C34.7527 25.3076 34.3908 23.7997 34.1857 22.2678C34.1496 22.2436 34.0651 22.1954 34.0289 22.1713C34.3667 20.3739 34.7286 18.5645 35.1025 16.7672C35.9348 12.7985 36.7913 8.82988 38.0217 4.96981C38.456 3.69116 38.9264 2.41251 39.626 1.26655C39.8914 0.808171 40.2774 0.458352 40.6755 0.120596Z" fill="black" stroke="#424242"/>
<path d="M55.7661 2.20748C56.2003 1.37515 56.7311 0.446324 57.672 0.132693C62.4609 0.108568 67.2498 0.12063 72.0387 0.12063C71.5924 0.566951 71.1219 1.01327 70.8204 1.58022C69.8915 3.24488 69.3487 5.09047 68.7938 6.91195C67.3704 11.93 66.3692 17.0567 65.4163 22.1834C64.5357 27.2376 63.5948 32.2919 62.5212 37.3221C61.9663 39.8552 61.3873 42.3764 60.6515 44.8733C60.181 46.4174 59.6865 47.9735 58.9144 49.4089C58.5405 50.0603 58.1062 50.772 57.3945 51.1098C52.8228 51.146 48.2389 51.1098 43.6672 51.1218C43.4138 51.1218 43.1485 51.1218 42.8951 51.0856C43.9205 50.2533 44.415 48.9747 44.8976 47.8046C45.7902 45.4644 46.4175 43.0519 47.0085 40.6273C48.0942 36.1279 48.9506 31.5802 49.8191 27.0446C50.8686 21.1942 51.9663 15.3438 53.3656 9.56574C54.017 7.06876 54.6442 4.53559 55.7661 2.20748Z" fill="black" stroke="#424242"/>
<path d="M72.0387 0.120596C72.4247 0.120596 72.8228 0.108533 73.2088 0.120596C73.836 0.446289 74.2824 1.00117 74.6804 1.56812C75.3318 2.60552 75.742 3.7756 76.1642 4.92156C77.1654 7.99756 77.9132 11.158 78.6008 14.3184C79.5176 18.5766 80.3137 22.8588 81.0978 27.1411C81.2908 28.1664 81.4838 29.2038 81.6044 30.2412C81.6527 30.2895 81.7492 30.386 81.7854 30.4222C81.3511 31.0253 81.1822 31.7491 80.941 32.4366C80.181 34.8854 79.6865 37.4185 79.2643 39.9397C78.9386 41.9179 78.4923 43.8842 77.8771 45.7901C77.4187 47.2014 76.8638 48.6007 75.947 49.7828C75.5128 50.3498 74.9217 50.7841 74.2703 51.0736C73.2691 51.1821 72.678 50.2171 72.1955 49.5054C71.1943 47.7563 70.6515 45.8021 70.0725 43.8962C68.1666 36.8395 66.9241 29.614 65.5851 22.4366C65.5731 22.3281 65.5128 22.2316 65.4163 22.1833C66.3692 17.0567 67.3704 11.93 68.7938 6.91191C69.3487 5.09044 69.8915 3.24484 70.8204 1.58019C71.1219 1.01324 71.5924 0.566917 72.0387 0.120596Z" fill="black" stroke="#424242"/>
<path d="M0.012085 27.5633C0.325716 27.5392 0.639347 27.491 0.96504 27.491H14.1134C14.6683 27.5633 15.2473 27.5151 15.7781 27.7563C16.5501 28.07 17.2377 28.6007 17.7443 29.2642C17.8046 29.228 17.9132 29.1315 17.9735 29.0832C17.684 31.0857 17.2135 33.0639 16.8155 35.0543C16.1761 38.082 15.5006 41.1098 14.6562 44.1013C14.1134 45.959 13.5465 47.8287 12.6418 49.5537C12.3281 50.1568 11.8456 50.6635 11.3028 51.0857C11.0977 51.1219 10.9409 50.9771 10.772 50.8685C10.2051 50.5067 9.87939 49.8794 9.52958 49.3124C7.87698 45.5489 7.69604 41.3872 6.67071 37.4548C6.15201 35.4886 5.51269 33.5344 4.5718 31.725C3.99278 30.6393 3.28108 29.6019 2.35225 28.7696C1.66468 28.2147 0.868539 27.7684 0.012085 27.5633Z" fill="black" stroke="#424242"/>
<path d="M82.8469 28.8178C83.6068 27.9613 84.7407 27.4185 85.8867 27.4668H95.7781C97.1533 27.4909 98.5405 27.4185 99.9156 27.503C99.5055 27.7804 99.0109 27.889 98.5767 28.1182C97.0688 28.8057 95.7781 29.9517 94.9578 31.3872C93.643 33.6791 93.1846 36.3088 92.7986 38.8902C92.4126 41.4233 92.4247 44.041 91.6044 46.5018C91.0495 48.2267 90.2051 49.9638 88.7455 51.0977C84.2099 51.1459 79.6744 51.1097 75.1508 51.1218C74.8493 51.1218 74.5598 51.1338 74.2703 51.0735C74.9217 50.784 75.5127 50.3498 75.947 49.7828C76.8637 48.6007 77.4186 47.2014 77.877 45.7901C78.4922 43.8841 78.9385 41.9179 79.2642 39.9396C79.6864 37.4185 80.181 34.8854 80.9409 32.4366C81.1822 31.749 81.3511 31.0253 81.7853 30.4221C82.1472 29.8914 82.3885 29.2762 82.8469 28.8178Z" fill="black" stroke="#424242"/>
</g>
<defs>
<clipPath id="clip0">
<rect width="100" height="51.1719" fill="white"/>
</clipPath>
</defs>
</svg>
